<svg xmlns="http://www.w3.org/2000/svg" xml:space="preserve" viewBox="0 0 463 463">
  <path fill="#fff" d="M412.145 119.226h-43.247c-8.646 0-16.394-5.152-19.738-13.126l-9.375-22.356c-5.688-13.562-18.865-22.325-33.571-22.325H156.786c-14.706 0-27.883 8.763-33.571 22.325L113.84 106.1c-3.344 7.974-11.091 13.126-19.738 13.126H50.855C22.813 119.226 0 142.039 0 170.081v180.645c0 28.042 22.813 50.855 50.855 50.855h361.29c28.042 0 50.855-22.813 50.855-50.855V170.081c0-28.042-22.814-50.855-50.855-50.855zM448 350.725c0 19.771-16.084 35.855-35.855 35.855H50.855C31.084 386.58 15 370.496 15 350.725V170.081c0-19.771 16.084-35.855 35.855-35.855h43.247c14.707 0 27.884-8.763 33.571-22.325l9.375-22.355c3.344-7.974 11.092-13.126 19.738-13.126h149.428c8.646 0 16.394 5.152 19.738 13.126l9.375 22.355c5.688 13.562 18.865 22.325 33.571 22.325h43.247c19.771 0 35.855 16.084 35.855 35.855v180.644z"/>
  <path fill="#fff" d="M102.837 183.14c-1.344-7.726-8.011-13.334-15.853-13.334-7.843 0-14.51 5.608-15.853 13.334L43.466 342.215c-.709 4.081 2.023 7.964 6.104 8.674 4.082.708 7.964-2.023 8.674-6.104l6.464-37.17c.198.016.396.03.598.03h43.354c.202 0 .4-.014.598-.03l6.464 37.17c.634 3.646 3.802 6.216 7.38 6.216.426 0 .859-.037 1.294-.112 4.081-.71 6.813-4.593 6.104-8.674L102.837 183.14zM67.312 292.645 85.909 185.71c.091-.523.543-.903 1.075-.903s.984.38 1.075.904l18.597 106.934H67.312zM217.048 169.806c-4.142 0-7.5 3.358-7.5 7.5v133.677c0 13.794-11.222 25.016-25.016 25.016s-25.016-11.222-25.016-25.016V177.306c0-4.142-3.358-7.5-7.5-7.5s-7.5 3.358-7.5 7.5v133.677c0 22.065 17.951 40.016 40.016 40.016s40.016-17.951 40.016-40.016V177.306c0-4.142-3.358-7.5-7.5-7.5zM318.209 169.806h-72.258c-4.142 0-7.5 3.358-7.5 7.5s3.358 7.5 7.5 7.5h28.629V343.5c0 4.142 3.358 7.5 7.5 7.5s7.5-3.358 7.5-7.5V184.806h28.629c4.142 0 7.5-3.358 7.5-7.5s-3.357-7.5-7.5-7.5zM372.403 169.806c-22.065 0-40.016 17.951-40.016 40.016v101.161c0 22.065 17.951 40.016 40.016 40.016s40.016-17.951 40.016-40.016v-101.16c0-22.065-17.951-40.017-40.016-40.017zm25.016 141.178c0 13.794-11.222 25.016-25.016 25.016s-25.016-11.222-25.016-25.016V209.823c0-13.794 11.222-25.016 25.016-25.016s25.016 11.222 25.016 25.016v101.161z"/>
</svg>
