<svg xmlns="http://www.w3.org/2000/svg" xml:space="preserve" viewBox="0 0 485 485">
  <path fill="#d2d6d8" d="M477.5 367.5v50c0 5.5-4.5 10-10 10h-450c-5.5 0-10-4.5-10-10v-50h470z"/>
  <path fill="#e7eced" d="M42.5 57.5h400v310h-400z"/>
  <path fill="#31c0d8" d="M72.5 87.5h340v240h-340z"/>
  <g fill="#231f20">
    <path d="M450 360V50H35v310H0v57.5c0 9.649 7.851 17.5 17.5 17.5h450c9.649 0 17.5-7.851 17.5-17.5V360h-35zM50 65h385v295H50V65zm420 352.5c0 1.355-1.145 2.5-2.5 2.5h-450c-1.355 0-2.5-1.145-2.5-2.5V375h455v42.5z"/>
    <path d="M65 335h355V80H65v255zM80 95h325v225H80V95zM197.5 390h90v15h-90z"/>
  </g>
</svg>
