<svg xmlns="http://www.w3.org/2000/svg" viewBox="0 0 388 388">
  <path fill="#D6D6D6" d="M382 294v40c0 4.3984-3.6016 8-8 8H14c-4.3984 0-8-3.6016-8-8v-40Zm0 0"/>
  <path fill="#EBEBEB" d="M34 46h320v248H34Zm0 0"/>
  <path fill="#999" d="M58 70h272v192H58Zm0 0"/>
  <path fill="#212121" d="M360 288V40H28v248H0v46c0 7.7188 6.2813 14 14 14h360c7.7188 0 14-6.2813 14-14v-46ZM40 52h308v236H40Zm336 282c0 1.086-.914 2-2 2H14c-1.086 0-2-.914-2-2v-34h364Zm0 0"/>
  <path fill="#212121" d="M52 268h284V64H52ZM64 76h260v180H64ZM158 312h72v12h-72Zm0 0"/>
</svg>
