<svg xmlns="http://www.w3.org/2000/svg" xml:space="preserve" viewBox="0 0 490 490">
  <path fill="#f2f2f2" d="M385 330h40v50h-40zM65 330h40v50H65z"/>
  <path fill="#999" d="M455 290v40H35v-40z"/>
  <path fill="#ccc" d="M480 130v160H10V130c0-11.04 8.96-20 20-20h430c11.04 0 20 8.96 20 20zm-45 70c0-30.37-24.62-55-55-55s-55 24.63-55 55 24.62 55 55 55 55-24.63 55-55z"/>
  <path fill="#31c0d8" d="M380 145c30.38 0 55 24.63 55 55s-24.62 55-55 55-55-24.63-55-55 24.62-55 55-55z"/>
  <path d="M460 100H30c-16.542 0-30 13.458-30 30v160c0 5.522 4.477 10 10 10h15v30c0 5.522 4.478 10 10 10h20v40c0 5.522 4.478 10 10 10h40c5.522 0 10-4.478 10-10v-40h260v40c0 5.522 4.478 10 10 10h40c5.522 0 10-4.478 10-10v-40h20c5.522 0 10-4.478 10-10v-30h15c5.522 0 10-4.478 10-10V130c0-16.542-13.458-30-30-30zM95 370H75v-30h20v30zm320 0h-20v-30h20v30zm30-50H45v-20h400v20zm25-40H20V130c0-5.514 4.486-10 10-10h430c5.514 0 10 4.486 10 10v150z"/>
  <path d="M380 135c-35.841 0-65 29.159-65 65s29.159 65 65 65 65-29.159 65-65-29.159-65-65-65zm0 110c-24.814 0-45-20.186-45-45s20.186-45 45-45 45 20.186 45 45-20.186 45-45 45zM45 155h240v20H45zM45 195h240v20H45zM45 235h30v20H45zM95 235h30v20H95zM145 235h30v20h-30z"/>
</svg>
