<svg xmlns="http://www.w3.org/2000/svg" viewBox="0 0 392 392">
  <path fill="#f2f2f2" d="M308 264h32v40h-32ZM52 264h32v40H52Zm0 0"/>
  <path fill="#999" d="M364 232v32H28v-32Zm0 0"/>
  <path fill="#ccc" d="M384 104v128H8V104c0-8.832 7.168-16 16-16h344c8.832 0 16 7.168 16 16Zm-36 56c0-24.2969-19.6953-44-44-44s-44 19.7031-44 44 19.6953 44 44 44 44-19.7031 44-44Zm0 0"/>
  <path fill="#999" d="M304 116c24.3047 0 44 19.7031 44 44s-19.6953 44-44 44-44-19.7031-44-44 19.6953-44 44-44Zm0 0"/>
  <path d="M368 80H24C10.7656 80 0 90.7656 0 104v128c0 4.418 3.582 8 8 8h12v24c0 4.418 3.582 8 8 8h16v32c0 4.418 3.582 8 8 8h32c4.418 0 8-3.582 8-8v-32h208v32c0 4.418 3.582 8 8 8h32c4.418 0 8-3.582 8-8v-32h16c4.418 0 8-3.582 8-8v-24h12c4.418 0 8-3.582 8-8V104c0-13.2344-10.7656-24-24-24ZM76 296H60v-24h16Zm256 0h-16v-24h16Zm24-40H36v-16h320Zm20-32H16V104c0-4.4102 3.5898-8 8-8h344c4.4102 0 8 3.5898 8 8Zm0 0"/>
  <path d="M304 108c-28.6719 0-52 23.3281-52 52s23.3281 52 52 52 52-23.3281 52-52-23.3281-52-52-52Zm0 88c-19.8516 0-36-16.1484-36-36s16.1484-36 36-36 36 16.1484 36 36-16.1484 36-36 36ZM36 124h192v16H36ZM36 156h192v16H36ZM36 188h24v16H36ZM76 188h24v16H76ZM116 188h24v16h-24Zm0 0"/>
</svg>
